<?xml version="1.0" encoding="utf-8" standalone="no"?>
<!DOCTYPE svg PUBLIC "-//W3C//DTD SVG 20010904//EN" "http://www.w3.org/TR/2001/REC-SVG-20010904/DTD/svg10.dtd">
<svg width="432px" height="275px" viewBox="0 0 432 275" xmlns="http://www.w3.org/2000/svg" xmlns:xlink="http://www.w3.org/1999/xlink">
<title>map_of_usa</title><desc>Generated with maputil.js (mapper.netzgesta.de)</desc>
<defs>
<script type="text/ecmascript">
<![CDATA[
var fdat="",sdat="";
function onAreaOver(evt){var ele=evt.target; fdat=ele.getAttribute("fill"); sdat=ele.getAttribute("stroke"); ele.setAttribute("fill","limegreen"); ele.setAttribute("stroke","green");}
function onAreaOut(evt){var ele=evt.target; ele.setAttribute("fill",fdat); ele.setAttribute("stroke",sdat);}
]]>
</script>
</defs>

<a xlink:title="Texas" xlink:href="#"><polygon id="Texas" fill="silver" stroke="gray" onmouseover="onAreaOver(evt);" onmouseout="onAreaOut(evt);" points="245,227,245,226,245,225,245,225,245,225,245,224,245,224,245,224,245,223,245,222,245,222,245,222,245,222,245,222,245,221,245,220,245,220,245,220,245,219,245,219,245,218,245,218,245,217,246,217,246,216,246,216,246,215,246,215,246,214,245,214,245,214,245,213,245,213,245,213,245,213,245,212,245,211,245,211,245,211,244,210,244,210,243,209,242,194,242,194,242,189,242,188,241,188,241,188,241,188,240,188,240,188,240,188,240,188,239,188,239,188,237,187,237,187,234,186,233,186,232,185,230,185,229,185,229,185,228,185,227,185,227,185,227,185,226,185,225,186,225,186,224,186,224,187,223,187,222,187,221,188,221,188,221,187,220,187,220,187,220,187,220,186,219,185,218,185,218,185,218,185,218,185,217,185,217,185,216,186,216,186,216,186,215,186,215,186,215,186,214,186,214,186,214,187,213,188,213,188,213,188,212,187,212,187,212,186,212,186,211,186,211,186,211,186,211,186,210,186,210,186,209,185,208,186,207,186,207,185,207,185,206,185,206,185,206,184,206,184,206,184,206,184,205,184,204,184,203,184,202,184,202,184,202,184,202,183,202,183,202,183,201,183,200,183,200,183,199,183,198,183,198,183,197,183,197,183,197,183,197,182,197,182,197,182,196,181,196,181,196,180,195,180,194,180,194,180,194,180,194,180,194,181,194,180,193,180,193,180,193,179,193,179,192,179,192,179,192,179,191,179,191,158,191,158,176,158,176,158,175,158,166,158,166,158,163,201,126,201,126,204,126,205,128,208,129,209,130,211,132,213,133,214,135,217,136,220,137,222,138,223,139,227,141,228,147,231,151,232,153,233,154,233,156,233,158,235,159,235,160,233,162,231,162,230,163,227,164,226,165,226,168,227,170,227,172,227,174,228,175,229,177,229,178,230,180,232,182,234,182,236,184,240,185,243,187,244,188,248,189,251,191,253,192,254,194,258,194,260,196,262,198,263,200,264,201,265,202,266,204,266,205,267,207,267,210,269,213,270,213,269,212,268,212,267,211,267,212,267,212,267,210,261,209,257,209,255,208,254,208,254,210,254,211,253,211,251,210,250,209,250,209,249,210,249,212,249,213,247,211,247,211,246,213,246,213,245,213,245,213,246,213,247,214,247,216,245,216,245,215,243,216,243,216,243,217,244,217,243,219,241,219,240,218,240,216,239,216,238,217,238,218,239,220,239,221,238,221,239,221,239,222,239,225,239,225,240,223,242,226,241,229,239,231,237,232,234,233,232,234,231,233,231,232,230,231,228,232,228,234,227,235,227,235,229,236,229,237,229,237,230,236,230,236,231,236,231,237,230,242,228,245,228,245,227,245,227,245,227" /></a>
<a xlink:title="Oklahoma" xlink:href="#"><polygon id="Oklahoma" fill="silver" stroke="gray" onmouseover="onAreaOver(evt);" onmouseout="onAreaOut(evt);" points="239,164,237,160,236,156,236,156,236,156,236,152,211,152,200,151,187,151,180,151,177,151,175,151,175,151,166,151,166,151,166,158,175,158,176,158,176,158,191,158,191,158,191,179,192,179,192,179,192,179,192,179,193,179,193,179,193,180,193,180,193,180,193,180,194,180,194,180,194,180,194,180,194,180,194,180,194,180,195,180,196,180,196,180,196,181,196,181,197,182,197,182,197,182,197,182,197,183,197,183,198,183,198,183,198,183,199,183,200,183,200,183,200,183,201,183,202,183,202,183,202,183,202,183,202,184,202,184,202,184,203,184,204,184,205,184,205,184,206,184,206,184,206,184,206,184,206,184,206,185,206,185,206,185,207,185,207,185,207,185,207,186,208,186,209,185,210,186,210,186,210,186,211,186,211,186,211,186,211,186,212,186,212,186,212,187,212,187,212,187,213,188,213,188,214,187,214,186,214,186,214,186,215,186,215,186,215,186,215,186,215,186,216,186,217,185,217,185,217,185,218,185,218,185,218,185,218,185,218,185,219,185,220,186,220,187,220,187,221,187,221,188,221,188,222,187,223,187,224,187,224,186,225,186,225,186,225,186,226,185,227,185,227,185,227,185,227,185,228,185,228,185,228,185,229,185,229,185,230,185,232,185,233,186,234,186,237,187,237,187,238,187,239,188,239,188,239,164,239,164" /></a>
<a xlink:title="New Mexico" xlink:href="#"><polygon id="New Mexico" fill="silver" stroke="gray" onmouseover="onAreaOver(evt);" onmouseout="onAreaOut(evt);" points="166,151,166,151,163,151,162,150,158,150,150,150,142,149,139,149,132,148,124,148,121,147,113,146,113,146,107,194,105,207,110,207,111,203,126,204,126,201,163,201,166,151" /></a>
<a xlink:title="Kansas" xlink:href="#"><polygon id="Kansas" fill="silver" stroke="gray" onmouseover="onAreaOver(evt);" onmouseout="onAreaOut(evt);" points="235,130,235,129,235,129,235,129,235,129,235,129,235,129,235,128,234,128,234,128,233,128,233,127,233,127,233,127,233,127,233,126,233,126,233,126,233,126,233,126,232,125,232,125,232,125,231,125,231,125,232,124,232,124,232,124,232,124,233,124,233,123,233,123,232,123,232,123,232,123,232,123,232,122,232,122,232,122,232,122,231,122,230,122,230,122,230,120,221,120,209,120,191,120,179,119,177,119,177,119,175,151,175,151,177,151,180,151,192,151,200,151,211,152,236,152,235,130,235,130" /></a>
<a xlink:title="Missouri" xlink:href="#"><polygon id="Missouri" fill="silver" stroke="gray" onmouseover="onAreaOver(evt);" onmouseout="onAreaOut(evt);" points="260,116,260,115,259,115,259,115,259,114,258,114,258,114,258,113,258,113,257,113,257,113,241,113,235,113,229,113,229,113,229,113,229,113,229,114,229,115,229,115,229,116,230,117,229,117,229,118,229,118,230,119,230,119,230,120,230,120,230,121,230,122,231,122,231,122,232,122,232,122,232,122,232,122,232,123,232,123,232,123,232,123,232,123,233,123,233,123,233,124,232,124,232,124,232,124,232,124,231,125,231,125,232,125,232,125,232,125,233,126,233,126,233,126,233,126,233,126,233,126,233,127,233,127,233,127,233,127,233,128,234,128,234,128,234,128,235,128,235,129,235,129,235,129,235,129,235,129,235,129,235,129,235,130,236,152,236,153,236,156,243,156,263,155,273,155,273,156,273,156,274,156,274,156,274,157,274,157,274,157,273,158,273,158,273,159,272,159,272,160,272,161,272,161,272,161,272,161,273,161,276,161,277,161,277,161,277,161,277,161,277,160,277,160,277,160,277,160,277,159,277,159,277,159,277,159,277,159,277,159,278,158,278,158,278,158,278,158,278,157,278,157,278,157,278,156,278,156,278,156,278,156,278,155,278,155,278,155,278,155,279,154,280,154,281,154,281,154,281,154,281,153,281,152,281,152,282,152,282,152,282,152,282,151,282,151,282,150,281,150,281,149,281,149,281,149,281,149,281,149,281,150,281,150,281,150,281,150,280,150,280,150,280,150,280,150,280,150,280,149,280,149,279,149,279,148,278,148,278,148,278,147,279,147,279,146,279,146,279,146,278,145,278,145,277,144,277,144,277,144,277,143,276,143,276,143,276,143,276,142,276,141,275,141,274,140,274,140,272,139,271,138,271,138,271,138,270,138,270,138,270,138,270,137,270,137,270,136,270,136,270,136,270,136,271,136,271,136,271,135,271,135,271,134,271,134,272,133,272,133,272,133,272,133,272,132,272,132,272,131,271,130,271,129,270,129,270,129,269,129,269,129,268,129,268,129,268,130,268,130,268,130,268,130,268,130,268,130,268,130,267,130,267,130,267,129,266,129,266,128,266,128,266,127,266,127,266,126,266,126,266,126,266,125,266,125,265,125,265,124,265,124,264,124,264,124,263,123,263,123,263,122,263,122,263,122,262,122,262,121,262,121,261,120,261,120,261,120,261,120,261,119,261,119,261,119,261,118,261,118,261,118,261,118,261,118,261,117,261,117,260,117,260,116" /></a>
<a xlink:title="Iowa" xlink:href="#"><polygon id="Iowa" fill="silver" stroke="gray" onmouseover="onAreaOver(evt);" onmouseout="onAreaOut(evt);" points="221,82,221,83,221,83,221,83,221,83,221,83,221,83,221,83,221,83,221,83,221,83,221,84,221,84,221,84,221,84,221,84,221,84,220,85,220,85,220,85,220,85,221,85,221,86,221,86,221,86,221,86,222,86,222,86,222,86,222,87,222,87,222,87,222,88,222,88,222,89,222,89,222,89,222,89,222,90,222,90,222,91,222,91,222,91,222,91,222,91,222,92,222,94,222,95,222,96,222,96,222,96,222,96,222,96,222,96,222,97,223,97,223,97,223,98,223,98,223,98,223,98,223,99,223,99,223,99,224,99,224,100,224,100,224,100,224,101,225,102,225,102,225,103,226,103,226,104,226,104,226,104,226,104,226,105,226,105,226,105,226,105,226,106,227,107,227,107,227,108,227,108,228,108,228,108,228,108,228,109,228,109,228,109,228,109,228,109,228,110,227,110,227,110,228,111,228,112,228,112,228,112,228,112,228,112,228,112,229,113,229,113,229,113,230,113,238,113,241,113,257,113,257,113,258,113,258,113,258,114,258,114,259,114,259,115,259,115,260,115,260,116,260,116,260,115,260,115,260,115,260,115,260,114,260,113,261,113,261,112,262,112,262,112,262,111,262,111,262,111,263,111,263,110,263,110,263,110,263,109,263,109,263,108,263,108,263,107,263,106,262,106,262,106,262,105,262,105,262,104,263,104,263,103,263,103,264,103,265,102,265,102,266,102,266,102,267,102,267,101,268,101,268,101,268,100,268,100,268,100,268,100,268,99,268,98,268,98,268,97,268,97,268,97,268,96,268,96,267,96,267,95,267,94,266,94,266,94,266,93,266,93,266,93,266,93,266,93,266,93,265,92,265,92,265,92,264,91,264,91,264,91,264,91,264,91,263,90,263,90,263,90,262,89,262,89,262,89,261,89,261,89,261,89,261,88,261,88,261,87,260,86,259,85,259,85,259,85,259,85,260,84,260,84,260,84,260,83,259,83,259,82,259,82,259,82,259,82,259,81,259,81,251,81,242,81,221,82,221,82" /></a>
<a xlink:title="Nebraska" xlink:href="#"><polygon id="Nebraska" fill="silver" stroke="gray" onmouseover="onAreaOver(evt);" onmouseout="onAreaOut(evt);" points="179,119,179,119,191,120,209,120,221,120,230,120,230,120,230,120,230,119,230,119,229,118,229,118,229,118,229,117,230,117,229,116,229,115,229,115,229,114,229,113,229,113,229,113,229,113,228,112,228,112,228,112,228,112,228,112,228,112,228,112,228,111,227,110,227,110,228,110,228,109,228,109,228,109,228,109,228,108,228,108,227,108,227,108,227,107,226,106,226,105,226,105,226,105,226,105,226,104,226,104,226,104,226,103,225,103,224,100,224,100,224,100,224,100,223,99,223,99,223,99,223,99,223,99,223,98,223,98,223,97,222,97,222,96,222,96,222,96,222,96,222,96,222,96,221,95,221,95,220,94,220,94,219,94,218,94,218,94,217,94,217,93,216,93,215,93,215,93,215,92,214,92,213,92,212,92,212,92,212,92,211,92,210,92,209,91,209,91,209,91,208,91,208,91,207,91,207,91,206,91,206,91,206,91,205,91,205,90,205,90,205,90,204,89,203,88,203,88,202,88,195,88,180,88,175,88,172,88,164,87,162,108,162,108,163,108,177,109,177,119,179,119" /></a>
<a xlink:title="South Dakota" xlink:href="#"><polygon id="South Dakota" fill="silver" stroke="gray" onmouseover="onAreaOver(evt);" onmouseout="onAreaOut(evt);" points="164,87,165,87,170,88,175,88,180,88,195,88,202,88,203,88,203,88,204,89,205,90,205,90,205,91,206,91,206,91,207,91,207,91,208,91,208,91,209,91,209,91,209,91,209,91,210,92,211,92,212,92,212,92,213,92,214,92,215,92,215,93,216,93,217,93,217,94,218,94,218,94,219,94,220,94,220,94,221,95,221,95,222,96,222,95,222,94,222,92,222,91,222,91,222,91,222,90,222,90,222,89,222,89,222,89,222,88,222,88,222,87,222,87,222,86,222,86,221,86,221,86,221,86,221,85,220,85,220,85,220,85,221,84,221,84,221,84,221,84,221,84,221,83,221,83,221,83,221,83,221,83,221,83,221,83,221,82,222,82,222,82,222,82,222,66,222,65,222,65,222,65,222,64,221,64,221,64,221,64,220,63,220,63,220,62,220,60,220,60,219,60,209,59,195,58,191,58,188,58,174,57,167,57,166,57,166,65,164,86,164,87" /></a>
<a xlink:title="North Dakota" xlink:href="#"><polygon id="North Dakota" fill="silver" stroke="gray" onmouseover="onAreaOver(evt);" onmouseout="onAreaOut(evt);" points="167,57,188,58,191,58,195,58,219,60,220,60,220,58,220,58,220,57,219,56,219,54,219,54,219,54,219,52,219,51,219,51,219,51,219,50,218,48,218,48,218,47,218,46,218,43,219,41,218,40,218,39,218,39,218,38,218,38,218,38,217,37,217,37,217,37,217,36,217,36,216,36,216,35,216,35,216,35,216,35,216,34,216,34,216,33,216,33,216,32,216,31,216,31,216,29,216,28,216,26,216,25,216,24,211,24,202,24,189,24,181,24,173,23,170,23,168,35,166,57,167,57" /></a>
<a xlink:title="Colorado" xlink:href="#"><polygon id="Colorado" fill="silver" stroke="gray" onmouseover="onAreaOver(evt);" onmouseout="onAreaOut(evt);" points="166,151,166,151,175,151,177,109,163,108,162,108,162,108,159,108,147,107,142,107,135,106,132,106,124,105,120,105,119,105,119,105,119,106,119,107,118,108,113,146,120,147,124,148,132,148,142,149,150,150,158,150,163,151,166,151,166,151,166,151" /></a>
<a xlink:title="Utah" xlink:href="#"><polygon id="Utah" fill="silver" stroke="gray" onmouseover="onAreaOver(evt);" onmouseout="onAreaOut(evt);" points="119,106,119,105,119,105,118,105,117,104,114,104,109,103,101,102,103,92,99,91,92,90,91,90,86,89,82,89,82,89,72,140,73,140,76,140,90,143,90,143,95,144,101,145,108,146,113,146,119,107,119,106" /></a>
<a xlink:title="Wyoming" xlink:href="#"><polygon id="Wyoming" fill="silver" stroke="gray" onmouseover="onAreaOver(evt);" onmouseout="onAreaOut(evt);" points="101,102,105,103,109,103,114,104,117,104,120,105,124,105,132,106,142,107,147,107,159,108,162,108,164,87,164,86,166,67,159,66,156,66,153,66,143,66,143,66,141,66,133,65,120,64,118,64,117,63,108,62,108,62,107,67,107,67,105,75,105,77,105,80,104,84,104,85,103,89,103,91,101,102,101,102" /></a>
<a xlink:title="Montana" xlink:href="#"><polygon id="Montana" fill="silver" stroke="gray" onmouseover="onAreaOver(evt);" onmouseout="onAreaOut(evt);" points="80,26,80,27,80,29,80,30,81,30,81,31,80,32,80,32,80,33,80,33,80,33,81,33,81,34,82,35,82,35,82,35,82,36,83,38,83,38,83,39,84,41,85,41,85,41,85,42,86,42,86,42,86,43,86,43,86,44,86,44,86,44,86,44,86,45,86,45,85,45,85,46,84,47,84,47,84,47,84,48,84,49,84,51,85,51,85,52,85,52,85,52,86,52,86,52,86,52,86,52,86,52,86,52,87,52,87,52,87,52,87,53,87,53,88,53,88,54,88,54,88,54,88,55,89,56,90,57,90,58,90,58,90,59,91,60,91,60,91,61,91,62,92,63,92,63,92,63,93,63,93,63,94,64,94,64,95,64,96,65,96,65,97,65,97,65,97,65,97,65,98,64,98,64,99,64,100,65,100,65,100,65,101,65,102,65,102,65,103,65,103,65,103,65,103,65,104,65,104,65,104,65,104,65,104,65,104,65,105,66,105,66,106,67,106,67,106,67,106,67,106,67,106,67,107,67,107,67,108,62,108,62,117,63,120,64,133,65,141,66,143,66,153,66,155,66,159,66,166,67,166,65,166,57,168,35,168,35,170,23,152,22,139,21,125,19,108,17,91,15,83,13,82,13,80,26,80,26" /></a>
<a xlink:title="Hawaii" xlink:href="#"><polygon id="Hawaii" fill="silver" stroke="gray" onmouseover="onAreaOver(evt);" onmouseout="onAreaOut(evt);" points="7,182,4,183,4,184,4,185,4,185,5,185,6,186,7,186,9,186,9,185,9,184,10,183,9,182,7,182" /></a>
<a xlink:title="Hawaii" xlink:href="#"><polygon id="Hawaii" fill="silver" stroke="gray" onmouseover="onAreaOver(evt);" onmouseout="onAreaOut(evt);" points="20,189,21,189,21,188,21,187,20,186,18,185,18,184,17,184,17,185,15,186,14,186,15,186,16,188,17,189,17,189,18,189,19,189,20,189,20,189" /></a>
<a xlink:title="Hawaii" xlink:href="#"><polygon id="Hawaii" fill="silver" stroke="gray" onmouseover="onAreaOver(evt);" onmouseout="onAreaOut(evt);" points="30,190,31,190,33,190,33,189,33,189,30,189,28,189,27,189,26,189,25,190,25,191,25,192,26,191,28,191,30,190" /></a>
<a xlink:title="Hawaii" xlink:href="#"><polygon id="Hawaii" fill="silver" stroke="gray" onmouseover="onAreaOver(evt);" onmouseout="onAreaOut(evt);" points="30,192,29,193,29,193,30,193,30,194,31,195,32,195,32,194,32,193,32,192,30,192" /></a>
<a xlink:title="Hawaii" xlink:href="#"><polygon id="Hawaii" fill="silver" stroke="gray" onmouseover="onAreaOver(evt);" onmouseout="onAreaOut(evt);" points="35,196,34,196,33,197,33,198,35,197,36,197,36,197,36,197,35,196,34,196" /></a>
<a xlink:title="Hawaii" xlink:href="#"><polygon id="Hawaii" fill="silver" stroke="gray" onmouseover="onAreaOver(evt);" onmouseout="onAreaOut(evt);" points="39,192,37,191,36,191,35,191,34,191,34,191,33,192,35,193,36,194,37,195,38,196,40,195,41,194,41,193,39,192" /></a>
<a xlink:title="Hawaii" xlink:href="#"><polygon id="Hawaii" fill="silver" stroke="gray" onmouseover="onAreaOver(evt);" onmouseout="onAreaOut(evt);" points="53,204,53,203,51,202,48,200,44,199,43,200,44,202,44,203,42,204,42,205,42,207,43,207,43,209,43,212,43,213,45,214,47,216,48,214,50,212,54,209,56,208,56,207,54,205,53,204" /></a>
<a xlink:title="Nevada" xlink:href="#"><polygon id="Nevada" fill="silver" stroke="gray" onmouseover="onAreaOver(evt);" onmouseout="onAreaOut(evt);" points="79,88,77,88,69,86,60,84,58,83,58,83,53,82,52,82,45,80,37,78,37,79,31,108,64,160,64,160,64,158,64,157,65,156,65,156,65,155,65,154,65,153,65,151,65,151,65,150,65,150,65,150,65,150,65,150,65,149,65,149,65,149,65,149,66,148,66,149,66,149,66,149,67,149,67,149,67,149,67,149,67,150,67,150,67,150,68,150,69,150,69,150,70,150,70,149,70,149,72,140,72,140,82,89,79,88" /></a>
<a xlink:title="California" xlink:href="#"><polygon id="California" fill="silver" stroke="gray" onmouseover="onAreaOver(evt);" onmouseout="onAreaOut(evt);" points="59,183,60,183,60,182,60,182,61,182,61,182,61,182,61,182,61,181,61,181,60,181,60,180,60,180,59,180,59,180,59,180,59,180,59,180,59,179,59,179,60,179,60,179,60,179,60,178,61,178,61,178,61,176,61,176,61,175,61,174,62,173,62,173,62,172,63,171,63,170,63,170,64,169,65,169,66,169,66,168,67,168,66,168,66,167,66,167,66,167,66,167,65,165,64,165,64,165,64,165,64,164,64,164,64,164,64,163,64,161,64,161,64,160,64,160,64,160,64,160,31,108,37,79,37,78,23,74,8,70,7,70,7,70,7,71,6,74,5,77,4,80,4,81,4,81,3,81,3,81,3,80,2,79,2,79,2,80,1,81,1,84,1,85,1,86,1,87,1,88,2,88,3,90,3,91,3,92,2,94,2,96,2,98,2,99,3,101,3,102,3,103,4,104,4,105,5,106,5,107,4,108,4,108,4,108,4,110,4,110,5,110,5,111,5,112,5,113,6,113,7,114,7,114,8,113,8,113,8,112,8,111,8,110,8,110,8,110,9,110,10,110,11,111,12,111,12,112,12,113,12,113,11,113,10,113,10,113,10,114,11,114,11,115,11,116,11,116,11,118,11,118,10,118,10,117,9,117,8,116,8,116,7,116,7,117,8,118,8,120,8,122,9,123,10,125,11,126,11,126,10,127,8,128,8,128,7,129,7,129,8,130,8,131,8,132,8,133,8,134,9,135,10,135,11,136,11,138,11,139,14,143,15,144,15,146,15,147,14,149,14,150,14,152,15,152,15,153,17,153,18,154,19,154,23,158,25,159,25,160,28,162,30,163,30,164,30,164,31,165,32,166,33,167,34,169,34,170,35,171,36,173,37,178,36,178,36,180,58,182,58,182,58,183,58,183,59,183,59,183" /></a>
<a xlink:title="Arizona" xlink:href="#"><polygon id="Arizona" fill="silver" stroke="gray" onmouseover="onAreaOver(evt);" onmouseout="onAreaOut(evt);" points="113,146,113,146,108,146,101,145,95,144,90,143,88,142,81,142,73,140,72,140,72,140,70,149,70,149,70,150,70,150,69,150,69,150,69,150,68,150,67,150,67,150,67,150,67,149,67,149,67,149,66,149,66,149,66,149,66,149,66,149,65,149,65,149,65,149,65,149,65,150,65,150,65,150,65,150,65,151,65,151,65,151,65,153,65,154,65,154,65,154,65,155,65,156,65,156,64,157,64,158,64,160,64,160,64,160,64,160,64,160,64,160,64,161,64,161,64,161,64,164,64,164,64,164,64,165,64,165,65,165,66,167,66,167,66,167,66,167,66,168,67,168,66,168,66,169,65,169,64,169,63,170,63,170,63,170,63,171,62,172,62,173,62,173,62,173,61,174,61,175,61,175,61,176,61,176,61,178,61,178,61,178,60,178,60,179,60,179,60,179,59,179,59,180,59,180,59,180,59,180,60,180,60,180,60,181,61,181,61,181,61,182,61,182,61,182,61,182,61,182,61,182,60,182,60,182,60,183,59,183,59,183,59,183,58,183,58,184,58,184,87,204,105,207,107,194,113,146,113,146" /></a>
<a xlink:title="Alaska" xlink:href="#"><polygon id="Alaska" fill="silver" stroke="gray" onmouseover="onAreaOver(evt);" onmouseout="onAreaOut(evt);" points="133,269,131,268,128,268,120,263,118,262,116,261,115,262,114,264,113,264,113,264,112,263,110,262,109,260,107,261,106,261,105,260,103,229,103,229,101,228,100,228,99,228,98,229,97,228,95,227,94,226,93,226,93,225,90,223,90,222,88,223,87,222,85,223,84,223,82,224,80,226,78,226,77,225,76,227,76,228,77,230,76,232,78,233,77,235,79,236,77,236,76,236,76,236,75,234,75,234,75,233,74,233,73,232,72,233,71,232,70,232,69,233,69,233,69,234,69,234,68,236,68,236,68,237,69,238,70,238,71,239,72,240,73,240,75,240,76,240,74,240,74,242,74,243,73,243,72,243,71,243,70,244,69,243,68,242,68,242,66,242,65,243,65,244,62,244,62,246,62,246,62,248,62,249,61,248,61,249,62,250,61,251,62,252,64,253,65,253,64,254,64,254,63,257,63,257,64,258,66,258,66,258,68,260,68,261,69,260,70,260,70,261,72,261,71,262,69,264,69,265,66,266,61,266,60,267,60,267,62,268,64,268,66,268,67,267,71,267,75,266,78,266,79,265,81,264,80,263,79,262,80,262,84,260,85,259,85,260,84,261,84,262,84,263,84,264,87,263,91,262,91,262,93,260,94,259,95,261,96,261,98,261,99,262,100,263,102,263,105,263,107,264,108,263,111,265,116,267,116,266,116,265,117,265,117,266,117,267,117,267,118,268,123,273,124,273,125,273,125,272,126,272,127,274,129,275,130,275,133,274,134,273,134,270,133,269" /></a>
<a xlink:title="Alaska" xlink:href="#"><polygon id="Alaska" fill="silver" stroke="gray" onmouseover="onAreaOver(evt);" onmouseout="onAreaOut(evt);" points="81,265,80,266,79,267,78,268,77,267,76,268,76,269,76,270,78,270,78,269,81,269,82,268,82,267,82,266,83,266,82,265,81,265" /></a>
<a xlink:title="Alaska" xlink:href="#"><polygon id="Alaska" fill="silver" stroke="gray" onmouseover="onAreaOver(evt);" onmouseout="onAreaOut(evt);" points="58,265,57,265,56,265,54,265,52,265,48,264,48,264,48,264,48,265,49,265,51,266,51,266,53,266,53,266,56,267,57,267,58,267,59,267,60,267,60,266,59,265,58,265" /></a>
<a xlink:title="Idaho" xlink:href="#"><polygon id="Idaho" fill="silver" stroke="gray" onmouseover="onAreaOver(evt);" onmouseout="onAreaOut(evt);" points="69,39,68,40,68,42,68,42,68,43,68,43,68,44,69,44,69,44,69,44,69,44,70,45,70,45,70,46,70,46,70,47,70,47,70,48,70,49,69,50,68,52,68,52,66,54,65,55,65,55,64,55,64,56,64,56,64,57,63,58,63,58,63,60,63,62,63,62,63,63,63,64,63,65,63,65,63,65,63,66,62,68,58,83,58,83,58,83,60,84,69,86,77,88,79,88,82,89,82,89,86,89,91,90,98,91,103,92,103,91,103,89,103,89,104,86,104,85,104,84,104,83,104,81,105,80,105,77,105,76,105,75,107,67,106,67,106,67,106,67,106,67,106,67,106,67,105,66,105,66,104,66,104,65,104,65,104,65,104,65,104,65,103,65,103,65,103,65,102,65,102,65,101,65,100,65,100,65,100,65,99,64,98,64,98,64,97,65,97,65,97,65,97,65,97,65,96,65,96,65,96,65,94,64,94,64,93,63,93,63,92,63,92,63,92,63,92,63,91,62,91,61,91,60,91,60,90,59,90,58,90,57,90,57,89,56,88,55,88,54,88,54,88,53,87,53,87,53,87,53,87,52,86,52,86,52,86,52,86,52,86,52,85,52,85,52,85,52,85,52,85,51,84,51,84,49,84,48,84,47,84,47,84,47,84,46,85,45,86,45,86,44,86,44,86,44,86,43,86,43,86,42,85,42,85,41,84,41,83,39,83,38,83,38,82,37,82,36,82,35,82,35,81,34,81,33,80,33,80,33,80,32,80,32,81,31,81,30,80,29,80,29,80,29,80,27,80,27,80,26,80,26,82,13,79,12,76,12,76,12,75,12,69,36,69,39" /></a>
<a xlink:title="Washington" xlink:href="#"><polygon id="Washington" fill="silver" stroke="gray" onmouseover="onAreaOver(evt);" onmouseout="onAreaOut(evt);" points="22,28,23,28,23,28,23,28,23,28,24,28,24,28,24,29,25,29,25,30,25,30,26,30,26,30,26,30,27,31,27,31,27,31,27,31,27,32,27,32,27,32,27,33,27,34,27,34,27,34,27,34,27,34,28,35,28,36,28,36,28,36,28,36,28,36,28,37,28,37,29,37,29,37,29,38,29,38,30,38,30,38,30,38,30,38,31,38,32,38,33,38,34,38,34,38,34,38,35,38,35,38,35,38,35,37,36,37,36,38,36,38,37,38,37,38,37,38,38,38,38,38,39,38,40,38,40,39,40,39,40,39,41,39,41,39,41,39,41,39,42,40,42,40,42,40,42,40,43,40,43,41,43,41,44,41,45,41,47,41,48,41,48,41,48,41,48,41,49,41,50,42,51,42,52,41,52,41,53,41,53,41,53,41,53,40,54,40,54,40,54,40,54,41,54,41,55,41,55,41,55,41,56,41,57,42,58,42,59,42,60,42,61,42,62,42,62,42,62,42,63,42,63,42,63,42,64,43,64,43,65,43,65,43,66,43,67,43,67,43,68,43,68,42,68,42,68,40,68,40,69,36,75,12,72,11,63,9,56,7,46,4,39,2,37,1,37,2,37,2,37,3,38,4,39,4,39,4,38,6,37,6,37,7,37,8,38,9,38,9,38,11,38,11,37,13,36,15,36,15,35,16,34,16,34,16,34,15,35,14,35,14,35,13,35,12,35,11,35,10,34,10,34,10,34,10,33,9,33,9,32,9,31,9,31,9,30,8,30,8,28,8,26,7,25,7,25,6,24,6,23,5,23,5,23,5,22,5,22,6,22,7,22,9,22,10,22,11,22,13,22,15,22,15,23,16,23,17,23,18,23,18,24,19,25,19,25,19,24,20,24,20,24,20,23,21,23,21,23,21,22,21,22,21,22,22,22,22,23,22,24,23,24,23,24,23,24,24,24,24,24,24,24,24,23,24,23,24,23,24,22,24,22,25,22,25,22,26,22,27,22,28,22,28,22,28" /></a>
<a xlink:title="Oregon" xlink:href="#"><polygon id="Oregon" fill="silver" stroke="gray" onmouseover="onAreaOver(evt);" onmouseout="onAreaOut(evt);" points="23,74,37,78,53,82,58,83,58,83,58,83,62,68,63,66,63,65,63,65,63,65,63,64,63,63,63,62,63,62,63,62,63,60,63,58,63,58,64,57,64,56,64,55,65,55,67,53,67,52,68,52,69,50,70,49,70,48,70,47,70,47,70,46,70,45,70,45,69,44,69,44,69,44,69,44,68,44,68,43,67,43,66,43,65,43,64,43,64,43,64,43,63,42,63,42,62,42,62,42,61,42,61,42,60,42,59,42,58,42,57,42,56,41,55,41,55,41,54,41,54,41,54,40,54,40,53,40,53,41,53,41,53,41,53,41,52,41,51,42,50,42,49,41,48,41,48,41,47,41,45,41,44,41,43,41,43,41,43,40,42,40,42,40,42,40,42,40,42,40,41,39,41,39,41,39,40,39,40,39,40,38,39,38,38,38,38,38,37,38,36,38,36,38,36,38,35,38,35,38,35,38,34,38,34,38,34,38,33,38,32,38,31,38,30,38,30,38,30,38,29,38,29,38,29,37,28,37,28,37,28,36,28,36,28,36,28,36,28,36,28,35,27,34,27,34,27,34,27,34,27,33,27,33,27,32,27,32,27,32,27,31,27,31,26,30,26,30,25,30,25,29,24,29,24,28,24,28,23,28,23,28,23,28,22,28,22,28,22,28,22,28,22,30,21,31,20,33,20,34,20,34,20,35,20,36,21,36,21,37,21,37,20,37,20,38,19,38,18,38,18,39,17,40,16,42,16,44,15,46,14,46,14,47,14,48,13,49,13,50,13,50,12,53,11,54,11,55,10,56,10,56,9,57,8,57,7,58,7,58,7,59,7,60,7,64,7,65,7,66,7,67,7,68,7,70,7,70,8,70,23,74" /></a>
</svg>